<svg width="18" height="21" viewBox="0 0 18 21" fill="none" xmlns="http://www.w3.org/2000/svg">
    <path d="M17 6.99281L11 1.73909C10.45 1.24773 9.73793 0.976074 9 0.976074C8.26207 0.976074 7.55002 1.24773 7 1.73909L0.999999 6.99281C0.682368 7.27654 0.428899 7.62461 0.256471 8.01383C0.0840432 8.40305 -0.00338793 8.8245 -5.73316e-07 9.25011V17.9797C-5.73316e-07 18.7744 0.31607 19.5365 0.878679 20.0984C1.44129 20.6604 2.20435 20.9761 3 20.9761H15C15.7956 20.9761 16.5587 20.6604 17.1213 20.0984C17.6839 19.5365 18 18.7744 18 17.9797V9.24012C18.002 8.81619 17.9138 8.39667 17.7415 8.00927C17.5691 7.62188 17.3164 7.27542 17 6.99281ZM11 18.9785H7V13.9844C7 13.7195 7.10536 13.4655 7.29289 13.2782C7.48043 13.0909 7.73478 12.9856 8 12.9856H10C10.2652 12.9856 10.5196 13.0909 10.7071 13.2782C10.8946 13.4655 11 13.7195 11 13.9844V18.9785ZM16 17.9797C16 18.2446 15.8946 18.4986 15.7071 18.6859C15.5196 18.8732 15.2652 18.9785 15 18.9785H13V13.9844C13 13.1897 12.6839 12.4276 12.1213 11.8657C11.5587 11.3037 10.7956 10.988 10 10.988H8C7.20435 10.988 6.44129 11.3037 5.87868 11.8657C5.31607 12.4276 5 13.1897 5 13.9844V18.9785H3C2.73478 18.9785 2.48043 18.8732 2.29289 18.6859C2.10536 18.4986 2 18.2446 2 17.9797V9.24012C2.00018 9.0983 2.03059 8.95815 2.08922 8.82899C2.14784 8.69983 2.23333 8.58461 2.34 8.49101L8.34 3.24729C8.52249 3.08716 8.75709 2.99885 9 2.99885C9.24291 2.99885 9.47751 3.08716 9.66 3.24729L15.66 8.49101C15.7667 8.58461 15.8522 8.69983 15.9108 8.82899C15.9694 8.95815 15.9998 9.0983 16 9.24012V17.9797Z" fill="#00D173" />
</svg>
