<svg width="18" height="16" viewBox="0 0 18 16" fill="none" xmlns="http://www.w3.org/2000/svg">
    <path fill-rule="evenodd" clip-rule="evenodd" d="M9 1.77778C8.69438 1.43008 8.3381 1.12648 7.94503 0.873245C7.0764 0.313633 6.02813 0 4.95 0C2.178 0 0 2.11008 0 4.79564C0 5.74987 0.230168 6.65601 0.624446 7.51808C1.84734 10.1943 4.64918 12.4527 7.06095 14.3967C7.75529 14.9564 8.41731 15.49 9 16C9.58269 15.49 10.2447 14.9564 10.9391 14.3967C13.3508 12.4527 16.1526 10.1944 17.3755 7.51823C17.7698 6.65611 18 5.74992 18 4.79564C18 2.11008 15.822 0 13.05 0C11.9719 0 10.9236 0.313633 10.055 0.873245C9.6619 1.12648 9.30562 1.43008 9 1.77778ZM9 13.6622C9.29051 13.4244 9.58746 13.1846 9.88395 12.9451C10.1351 12.7423 10.3859 12.5398 10.6322 12.339C11.6181 11.535 12.5832 10.7182 13.4378 9.86225C14.4954 8.80296 15.2814 7.7834 15.7391 6.77706C16.0409 6.11262 16.2 5.45451 16.2 4.79564C16.2 3.12404 14.8607 1.77778 13.05 1.77778C11.9804 1.77778 10.9823 2.23443 10.3593 2.94321L9 4.48963L7.64074 2.94321C7.01773 2.23443 6.01959 1.77778 4.95 1.77778C3.13928 1.77778 1.8 3.12404 1.8 4.79564C1.8 5.45451 1.95907 6.11262 2.26092 6.77706C2.71862 7.7834 3.50462 8.80296 4.56218 9.86225C5.41677 10.7182 6.38185 11.535 7.36778 12.339C7.61408 12.5398 7.8649 12.7423 8.11605 12.9451C8.41254 13.1846 8.70949 13.4244 9 13.6622Z" fill="#D9E0DD" />
</svg>
