<svg width="375" height="92" viewBox="0 0 375 92" fill="none" xmlns="http://www.w3.org/2000/svg">
    <g filter="url(#filter0_d)">
        <path d="M188 47C203.605 47 216.954 37.3392 222.392 23.6721C225.25 16.4879 231.268 10 239 10H341C359.778 10 375 25.2223 375 44V58C375 76.7776 359.778 92 341 92H34C15.2223 92 0 76.7777 0 58V44C0 25.2224 15.2223 10 34 10H137C144.732 10 150.75 16.4879 153.608 23.6721C159.046 37.3392 172.395 47 188 47Z" fill="white" />
    </g>
    <defs>
        <filter id="filter0_d" x="-10" y="0" width="395" height="102" filterUnits="userSpaceOnUse" color-interpolation-filters="sRGB">
            <feFlood flood-opacity="0" result="BackgroundImageFix" />
            <feColorMatrix in="SourceAlpha" type="matrix" values="0 0 0 0 0 0 0 0 0 0 0 0 0 0 0 0 0 0 127 0" />
            <feOffset />
            <feGaussianBlur stdDeviation="5" />
            <feColorMatrix type="matrix" values="0 0 0 0 0 0 0 0 0 0 0 0 0 0 0 0 0 0 0.05 0" />
            <feBlend mode="normal" in2="BackgroundImageFix" result="effect1_dropShadow" />
            <feBlend mode="normal" in="SourceGraphic" in2="effect1_dropShadow" result="shape" />
        </filter>
    </defs>
</svg>
