<svg width="20" height="21" viewBox="0 0 20 21" fill="none" xmlns="http://www.w3.org/2000/svg">
    <path d="M11.9609 16.9475C12.2253 16.9475 12.4788 16.8424 12.6657 16.6555C12.8526 16.4686 12.9576 16.2151 12.9576 15.9507V13.9573C12.9576 13.6929 12.8526 13.4394 12.6657 13.2525C12.4788 13.0656 12.2253 12.9605 11.9609 12.9605C11.6966 12.9605 11.443 13.0656 11.2561 13.2525C11.0692 13.4394 10.9642 13.6929 10.9642 13.9573V15.9507C10.9642 16.2151 11.0692 16.4686 11.2561 16.6555C11.443 16.8424 11.6966 16.9475 11.9609 16.9475ZM7.97399 16.9475C8.23834 16.9475 8.49187 16.8424 8.67879 16.6555C8.86571 16.4686 8.97073 16.2151 8.97073 15.9507V13.9573C8.97073 13.6929 8.86571 13.4394 8.67879 13.2525C8.49187 13.0656 8.23834 12.9605 7.97399 12.9605C7.70965 12.9605 7.45612 13.0656 7.2692 13.2525C7.08228 13.4394 6.97726 13.6929 6.97726 13.9573V15.9507C6.97726 16.2151 7.08228 16.4686 7.2692 16.6555C7.45612 16.8424 7.70965 16.9475 7.97399 16.9475ZM16.9446 4.9867H15.5691L13.8447 1.54798C13.792 1.42145 13.7138 1.30715 13.615 1.21221C13.5161 1.11728 13.3987 1.04375 13.2702 0.996236C13.1416 0.948717 13.0046 0.928225 12.8678 0.936039C12.7309 0.943854 12.5972 0.979807 12.4749 1.04165C12.3525 1.1035 12.2443 1.18991 12.1569 1.29548C12.0695 1.40105 12.0048 1.52352 11.9668 1.65523C11.9289 1.78693 11.9185 1.92505 11.9364 2.06095C11.9542 2.19684 11.9999 2.3276 12.0706 2.44504L13.3364 4.9867H6.59851L7.86435 2.44504C7.9611 2.21271 7.96638 1.95238 7.87913 1.71632C7.79188 1.48026 7.61855 1.28594 7.39396 1.17238C7.16937 1.05882 6.91013 1.03443 6.66829 1.1041C6.42646 1.17377 6.21993 1.33234 6.09017 1.54798L4.36583 4.9867H2.99035C2.28585 4.99742 1.60776 5.25656 1.07568 5.71843C0.543595 6.1803 0.191701 6.81523 0.0820573 7.51123C-0.0275862 8.20722 0.112064 8.91959 0.476379 9.52267C0.840693 10.1258 1.40627 10.5808 2.07335 10.8076L2.81093 18.2432C2.88531 18.9834 3.23289 19.6692 3.78581 20.1668C4.33872 20.6644 5.05726 20.9381 5.80112 20.9344H14.1537C14.8976 20.9381 15.6161 20.6644 16.169 20.1668C16.7219 19.6692 17.0695 18.9834 17.1439 18.2432L17.8815 10.8076C18.55 10.5801 19.1165 10.1234 19.4805 9.51832C19.8446 8.91322 19.9828 8.1988 19.8705 7.50159C19.7583 6.80439 19.403 6.16941 18.8674 5.70911C18.3319 5.2488 17.6507 4.99289 16.9446 4.9867ZM15.1405 18.0439C15.1157 18.2906 14.9998 18.5192 14.8155 18.6851C14.6312 18.8509 14.3917 18.9422 14.1438 18.9409H5.79116C5.5432 18.9422 5.30369 18.8509 5.11938 18.6851C4.93508 18.5192 4.81922 18.2906 4.79443 18.0439L4.08675 10.9671H15.8482L15.1405 18.0439ZM16.9446 8.97362H2.99035C2.726 8.97362 2.47247 8.86861 2.28555 8.68169C2.09863 8.49476 1.99362 8.24124 1.99362 7.97689C1.99362 7.71254 2.09863 7.45902 2.28555 7.2721C2.47247 7.08517 2.726 6.98016 2.99035 6.98016H16.9446C17.2089 6.98016 17.4624 7.08517 17.6494 7.2721C17.8363 7.45902 17.9413 7.71254 17.9413 7.97689C17.9413 8.24124 17.8363 8.49476 17.6494 8.68169C17.4624 8.86861 17.2089 8.97362 16.9446 8.97362Z" fill="#002F1A" />
</svg>
