<svg width="80" height="22" viewBox="0 0 80 22" fill="none" xmlns="http://www.w3.org/2000/svg">
    <path d="M0.3125 21H14.0739V16.5455H5.84091V0.636363H0.3125V21ZM35.2429 10.8182C35.2429 4.01704 30.8679 0.357954 25.3395 0.357954C19.7713 0.357954 15.4361 4.01704 15.4361 10.8182C15.4361 17.5795 19.7713 21.2784 25.3395 21.2784C30.8679 21.2784 35.2429 17.6193 35.2429 10.8182ZM29.5554 10.8182C29.5554 14.4773 28.0838 16.4659 25.3395 16.4659C22.5952 16.4659 21.1236 14.4773 21.1236 10.8182C21.1236 7.15909 22.5952 5.17045 25.3395 5.17045C28.0838 5.17045 29.5554 7.15909 29.5554 10.8182ZM51.0252 7.35795H56.6133C56.1857 3.27131 52.4769 0.357954 47.6644 0.357954C42.1758 0.357954 37.7212 4.13636 37.7212 10.858C37.7212 17.3011 41.7582 21.2784 47.7042 21.2784C53.0337 21.2784 56.8519 18.017 56.8519 12.4489V9.625H47.8235V13.5625H51.5224C51.4727 15.3324 50.2198 16.4659 47.744 16.4659C44.8803 16.4659 43.4087 14.358 43.4087 10.7784C43.4087 7.24858 44.9996 5.17045 47.7837 5.17045C49.5138 5.17045 50.6871 5.96591 51.0252 7.35795ZM79.157 10.8182C79.157 4.01704 74.782 0.357954 69.2536 0.357954C63.6854 0.357954 59.3501 4.01704 59.3501 10.8182C59.3501 17.5795 63.6854 21.2784 69.2536 21.2784C74.782 21.2784 79.157 17.6193 79.157 10.8182ZM73.4695 10.8182C73.4695 14.4773 71.9979 16.4659 69.2536 16.4659C66.5092 16.4659 65.0376 14.4773 65.0376 10.8182C65.0376 7.15909 66.5092 5.17045 69.2536 5.17045C71.9979 5.17045 73.4695 7.15909 73.4695 10.8182Z" fill="#00D173" />
</svg>
