<svg width="21" height="20" viewBox="0 0 21 20" fill="none" xmlns="http://www.w3.org/2000/svg">
    <path d="M11 0C9.68677 0 8.38641 0.258658 7.17315 0.761205C5.9599 1.26375 4.85751 2.00035 3.92892 2.92893C2.05356 4.8043 0.999988 7.34784 0.999988 10C0.991246 12.3091 1.79078 14.5485 3.25999 16.33L1.25999 18.33C1.12123 18.4706 1.02723 18.6492 0.98986 18.8432C0.952486 19.0372 0.973409 19.2379 1.04999 19.42C1.13305 19.5999 1.26769 19.7511 1.43683 19.8544C1.60598 19.9577 1.80199 20.0083 1.99999 20H11C13.6522 20 16.1957 18.9464 18.0711 17.0711C19.9464 15.1957 21 12.6522 21 10C21 7.34784 19.9464 4.8043 18.0711 2.92893C16.1957 1.05357 13.6522 0 11 0ZM11 18H4.40999L5.33999 17.07C5.52624 16.8826 5.63078 16.6292 5.63078 16.365C5.63078 16.1008 5.52624 15.8474 5.33999 15.66C4.03057 14.352 3.21516 12.6305 3.03268 10.7888C2.8502 8.94705 3.31193 7.09901 4.33922 5.55952C5.3665 4.02004 6.89578 2.88436 8.6665 2.34597C10.4372 1.80759 12.3398 1.8998 14.0502 2.60691C15.7606 3.31402 17.1728 4.59227 18.0464 6.22389C18.92 7.85551 19.2009 9.73954 18.8411 11.555C18.4814 13.3705 17.5033 15.005 16.0735 16.1802C14.6438 17.3554 12.8508 17.9985 11 18ZM16 9H5.99999C5.73477 9 5.48042 9.10536 5.29288 9.29289C5.10535 9.48043 4.99999 9.73478 4.99999 10C4.99999 10.2652 5.10535 10.5196 5.29288 10.7071C5.48042 10.8946 5.73477 11 5.99999 11H16C16.2652 11 16.5196 10.8946 16.7071 10.7071C16.8946 10.5196 17 10.2652 17 10C17 9.73478 16.8946 9.48043 16.7071 9.29289C16.5196 9.10536 16.2652 9 16 9ZM14 13H7.99999C7.73477 13 7.48042 13.1054 7.29288 13.2929C7.10535 13.4804 6.99999 13.7348 6.99999 14C6.99999 14.2652 7.10535 14.5196 7.29288 14.7071C7.48042 14.8946 7.73477 15 7.99999 15H14C14.2652 15 14.5196 14.8946 14.7071 14.7071C14.8946 14.5196 15 14.2652 15 14C15 13.7348 14.8946 13.4804 14.7071 13.2929C14.5196 13.1054 14.2652 13 14 13ZM7.99999 7H14C14.2652 7 14.5196 6.89464 14.7071 6.70711C14.8946 6.51957 15 6.26522 15 6C15 5.73478 14.8946 5.48043 14.7071 5.29289C14.5196 5.10536 14.2652 5 14 5H7.99999C7.73477 5 7.48042 5.10536 7.29288 5.29289C7.10535 5.48043 6.99999 5.73478 6.99999 6C6.99999 6.26522 7.10535 6.51957 7.29288 6.70711C7.48042 6.89464 7.73477 7 7.99999 7Z" fill="#D9E0DD" />
</svg>
