<svg width="25" height="12" viewBox="0 0 25 12" fill="none" xmlns="http://www.w3.org/2000/svg">
    <path opacity="0.4" fill-rule="evenodd" clip-rule="evenodd" d="M2.66667 1.33334H19.3333C20.2538 1.33334 21 2.07954 21 3.00001V9.00001C21 9.92049 20.2538 10.6667 19.3333 10.6667H2.66667C1.74619 10.6667 1 9.92049 1 9.00001V3.00001C1 2.07953 1.74619 1.33334 2.66667 1.33334ZM0 3.00001C0 1.52725 1.19391 0.333344 2.66667 0.333344H19.3333C20.8061 0.333344 22 1.52725 22 3.00001V9.00001C22 10.4728 20.8061 11.6667 19.3333 11.6667H2.66667C1.19391 11.6667 0 10.4728 0 9.00001V3.00001ZM24.328 6.00002C24.328 6.87315 23.8047 7.66124 23 8.00002V4.00002C23.8047 4.33879 24.328 5.12688 24.328 6.00002Z" fill="black" />
    <rect x="2" y="2.33334" width="18" height="7.33333" rx="1.33333" fill="black" />
</svg>